<svg width="59" height="30" viewBox="0 0 59 30" fill="none" xmlns="http://www.w3.org/2000/svg">
<rect x="58.0586" y="23" width="1" height="57.4219" transform="rotate(90 58.0586 23)" fill="#9DA4BD" fill-opacity="0.6"/>
<path d="M7.86084 12H6.57715V8.45508L2.95703 8.45508L2.95703 12H1.66797L1.66797 4.14746H2.95703L2.95703 7.35938L6.57715 7.35938V4.14746H7.86084L7.86084 12ZM13.2416 5.94141C13.9936 5.94141 14.5611 6.10791 14.9442 6.44092C15.331 6.77393 15.5243 7.29313 15.5243 7.99854V12H14.6273L14.3856 11.1567H14.3427C14.1744 11.3716 14.0007 11.5488 13.8217 11.6885C13.6426 11.8281 13.435 11.932 13.1986 12C12.9659 12.0716 12.6812 12.1074 12.3446 12.1074C11.9901 12.1074 11.6732 12.043 11.3939 11.9141C11.1146 11.7816 10.8944 11.5811 10.7333 11.3125C10.5722 11.0439 10.4916 10.7038 10.4916 10.292C10.4916 9.67969 10.719 9.21956 11.1737 8.91162C11.6321 8.60368 12.3231 8.43359 13.247 8.40137L14.2782 8.36377V8.05225C14.2782 7.64046 14.1815 7.34684 13.9882 7.17139C13.7984 6.99593 13.5299 6.9082 13.1825 6.9082C12.8853 6.9082 12.5971 6.95117 12.3178 7.03711C12.0385 7.12305 11.7663 7.22868 11.5014 7.354L11.0932 6.4624C11.3832 6.30843 11.7126 6.18311 12.0814 6.08643C12.4538 5.98975 12.8406 5.94141 13.2416 5.94141ZM14.2729 9.15869L13.5048 9.18555C12.8746 9.20703 12.4324 9.31445 12.1781 9.50781C11.9239 9.70117 11.7968 9.96615 11.7968 10.3027C11.7968 10.5964 11.8845 10.8112 12.06 10.9473C12.2354 11.0798 12.4664 11.146 12.7528 11.146C13.1897 11.146 13.5513 11.0225 13.8378 10.7754C14.1278 10.5247 14.2729 10.1577 14.2729 9.67432V9.15869ZM20.2391 5.94141C20.6759 5.94141 21.068 6.00049 21.4153 6.11865C21.7662 6.23324 22.0438 6.4069 22.2479 6.63965C22.452 6.8724 22.554 7.16243 22.554 7.50977C22.554 7.86784 22.4502 8.1543 22.2425 8.36914C22.0384 8.5804 21.7609 8.73258 21.41 8.82568V8.87402C21.657 8.9349 21.8808 9.02262 22.0813 9.13721C22.2819 9.24821 22.4412 9.3986 22.5594 9.58838C22.6811 9.77458 22.742 10.0145 22.742 10.3081C22.742 10.6411 22.6435 10.9437 22.4466 11.2158C22.2532 11.488 21.956 11.7046 21.555 11.8657C21.1539 12.0269 20.6437 12.1074 20.0242 12.1074C19.727 12.1074 19.4441 12.0913 19.1756 12.0591C18.9106 12.0304 18.6689 11.9893 18.4505 11.9355C18.2321 11.8783 18.0423 11.8102 17.8812 11.7314L17.8812 10.6465C18.1282 10.7646 18.4272 10.8721 18.7781 10.9688C19.129 11.0618 19.505 11.1084 19.9061 11.1084C20.2033 11.1084 20.4718 11.0815 20.7117 11.0278C20.9552 10.9705 21.1468 10.8774 21.2864 10.7485C21.4297 10.6196 21.5013 10.4478 21.5013 10.2329C21.5013 10.036 21.4386 9.87305 21.3133 9.74414C21.188 9.61523 21 9.52035 20.7493 9.45947C20.4987 9.39502 20.1818 9.36279 19.7986 9.36279H19.0896V8.43359H19.7127C20.2391 8.43359 20.6508 8.3763 20.948 8.26172C21.2488 8.14355 21.3992 7.93945 21.3992 7.64941C21.3992 7.40592 21.2936 7.22331 21.0823 7.10156C20.8711 6.97982 20.547 6.91895 20.1102 6.91895C19.8094 6.91895 19.5122 6.95296 19.2186 7.021C18.9249 7.08545 18.6313 7.17855 18.3377 7.30029L17.9402 6.37109C18.2661 6.23861 18.6152 6.13477 18.9876 6.05957C19.36 5.98079 19.7771 5.94141 20.2391 5.94141ZM27.5373 5.94141C28.2893 5.94141 28.8568 6.10791 29.2399 6.44092C29.6267 6.77393 29.82 7.29313 29.82 7.99854L29.82 12H28.923L28.6813 11.1567H28.6384C28.4701 11.3716 28.2964 11.5488 28.1174 11.6885C27.9383 11.8281 27.7307 11.932 27.4943 12C27.2616 12.0716 26.9769 12.1074 26.6403 12.1074C26.2858 12.1074 25.9689 12.043 25.6896 11.9141C25.4104 11.7816 25.1901 11.5811 25.029 11.3125C24.8679 11.0439 24.7873 10.7038 24.7873 10.292C24.7873 9.67969 25.0147 9.21956 25.4694 8.91162C25.9278 8.60368 26.6188 8.43359 27.5427 8.40137L28.5739 8.36377V8.05225C28.5739 7.64046 28.4772 7.34684 28.2839 7.17139C28.0941 6.99593 27.8256 6.9082 27.4782 6.9082C27.181 6.9082 26.8928 6.95117 26.6135 7.03711C26.3342 7.12305 26.062 7.22868 25.7971 7.354L25.3889 6.4624C25.6789 6.30843 26.0083 6.18311 26.3771 6.08643C26.7495 5.98975 27.1363 5.94141 27.5373 5.94141ZM28.5686 9.15869L27.8005 9.18555C27.1703 9.20703 26.7281 9.31445 26.4738 9.50781C26.2196 9.70117 26.0925 9.96615 26.0925 10.3027C26.0925 10.5964 26.1802 10.8112 26.3557 10.9473C26.5311 11.0798 26.7621 11.146 27.0485 11.146C27.4854 11.146 27.847 11.0225 28.1335 10.7754C28.4235 10.5247 28.5686 10.1577 28.5686 9.67432V9.15869ZM6.39453 21.0542L6.39453 26.0225H7.25391V29.0947H6.08838V27H1.98486L1.98486 29.0947H0.819336L0.819336 26.0225H1.30273C1.60352 25.5856 1.85417 25.0986 2.05469 24.5615C2.25879 24.0244 2.41634 23.4587 2.52734 22.8643C2.64193 22.2663 2.71354 21.6629 2.74219 21.0542H6.39453ZM5.14307 22.021H3.82715C3.78418 22.5044 3.71077 22.986 3.60693 23.4658C3.50309 23.9421 3.36882 24.3986 3.2041 24.8354C3.04297 25.2687 2.84961 25.6644 2.62402 26.0225H5.14307L5.14307 22.021Z" fill="#9DA4BD" fill-opacity="0.6"/>
</svg>
