<svg width="59" height="30" viewBox="0 0 59 30" fill="none" xmlns="http://www.w3.org/2000/svg">
<rect x="58.3633" y="23" width="1" height="57.4219" transform="rotate(90 58.3633 23)" fill="white"/>
<path d="M21.205 4.14746L23.536 4.14746C24.6174 4.14746 25.398 4.30501 25.8778 4.62012C26.3612 4.93522 26.6029 5.43294 26.6029 6.11328C26.6029 6.57161 26.4848 6.95296 26.2484 7.25732C26.0121 7.56169 25.6719 7.75326 25.2279 7.83203V7.88574C25.7794 7.98958 26.184 8.19548 26.4418 8.50342C26.7032 8.80778 26.8339 9.22135 26.8339 9.74414C26.8339 10.4495 26.5868 11.0028 26.0927 11.4038C25.6021 11.8013 24.9182 12 24.0409 12H21.205V4.14746ZM22.4887 7.3916H23.724C24.2611 7.3916 24.6532 7.30745 24.9003 7.13916C25.1474 6.96729 25.2709 6.67725 25.2709 6.26904C25.2709 5.90023 25.1366 5.63346 24.8681 5.46875C24.6031 5.30404 24.1806 5.22168 23.6005 5.22168H22.4887V7.3916ZM22.4887 8.43359V10.9204H23.8529C24.39 10.9204 24.7947 10.8184 25.0668 10.6143C25.3425 10.4066 25.4804 10.0807 25.4804 9.63672C25.4804 9.22852 25.3407 8.92594 25.0614 8.729C24.7821 8.53206 24.3578 8.43359 23.7885 8.43359H22.4887ZM34.6263 6.05957V12H33.3587V7.05859L30.6946 7.05859L30.6946 12H29.4324L29.4324 6.05957L34.6263 6.05957ZM40.1306 12.1074C39.2067 12.1074 38.4834 11.8389 37.9606 11.3018C37.4414 10.7611 37.1818 10.0181 37.1818 9.07275C37.1818 8.10238 37.4235 7.33968 37.9069 6.78467C38.3903 6.22965 39.0546 5.95215 39.8996 5.95215C40.6838 5.95215 41.3033 6.19027 41.758 6.6665C42.2128 7.14274 42.4401 7.79801 42.4401 8.63232V9.31445L38.4816 9.31445C38.4995 9.89095 38.6553 10.335 38.9489 10.6465C39.2425 10.9544 39.6561 11.1084 40.1896 11.1084C40.5406 11.1084 40.8664 11.0762 41.1672 11.0117C41.4715 10.9437 41.7974 10.8327 42.1447 10.6787V11.7046C41.8368 11.8514 41.5253 11.9552 41.2102 12.0161C40.8951 12.077 40.5352 12.1074 40.1306 12.1074ZM39.8996 6.9082C39.4986 6.9082 39.1763 7.03532 38.9328 7.28955C38.6929 7.54378 38.5497 7.91439 38.5031 8.40137L41.1994 8.40137C41.1923 7.91081 41.0741 7.5402 40.8449 7.28955C40.6158 7.03532 40.3007 6.9082 39.8996 6.9082ZM47.9874 12.1074C47.2354 12.1074 46.6518 11.8371 46.2364 11.2964H46.1612C46.2114 11.7977 46.2364 12.1021 46.2364 12.2095V14.6426H44.9742V6.05957H45.9947C46.0234 6.17057 46.0825 6.43555 46.172 6.85449H46.2364C46.6303 6.25293 47.2211 5.95215 48.0089 5.95215C48.7501 5.95215 49.3266 6.2207 49.7384 6.75781C50.1537 7.29492 50.3614 8.04867 50.3614 9.01904C50.3614 9.98942 50.1502 10.7467 49.7276 11.291C49.3087 11.8353 48.7286 12.1074 47.9874 12.1074ZM47.6812 6.9834C47.1799 6.9834 46.8129 7.13021 46.5802 7.42383C46.351 7.71745 46.2364 8.18652 46.2364 8.83105V9.01904C46.2364 9.74235 46.351 10.2669 46.5802 10.5928C46.8093 10.915 47.1835 11.0762 47.7027 11.0762C48.1396 11.0762 48.4762 10.8971 48.7125 10.5391C48.9488 10.181 49.067 9.67074 49.067 9.0083C49.067 8.34229 48.9488 7.83919 48.7125 7.49902C48.4798 7.15527 48.136 6.9834 47.6812 6.9834ZM55.522 12.1074C54.5981 12.1074 53.8748 11.8389 53.3521 11.3018C52.8328 10.7611 52.5732 10.0181 52.5732 9.07275C52.5732 8.10238 52.8149 7.33968 53.2983 6.78467C53.7817 6.22965 54.446 5.95215 55.291 5.95215C56.0752 5.95215 56.6947 6.19027 57.1494 6.6665C57.6042 7.14274 57.8315 7.79801 57.8315 8.63232V9.31445H53.873C53.891 9.89095 54.0467 10.335 54.3403 10.6465C54.634 10.9544 55.0475 11.1084 55.5811 11.1084C55.932 11.1084 56.2578 11.0762 56.5586 11.0117C56.863 10.9437 57.1888 10.8327 57.5361 10.6787V11.7046C57.2282 11.8514 56.9167 11.9552 56.6016 12.0161C56.2865 12.077 55.9266 12.1074 55.522 12.1074ZM55.291 6.9082C54.89 6.9082 54.5677 7.03532 54.3242 7.28955C54.0843 7.54378 53.9411 7.91439 53.8945 8.40137H56.5908C56.5837 7.91081 56.4655 7.5402 56.2363 7.28955C56.0072 7.03532 55.6921 6.9082 55.291 6.9082ZM58.1646 29.1001H56.9883V27H52.917V29.1001H51.7515V26.0225H52.2349C52.6574 25.4173 52.9922 24.6868 53.2393 23.8311C53.4899 22.9717 53.6385 22.0479 53.6851 21.0596H57.2944L57.2944 26.0225H58.1646V29.1001ZM56.0537 26.0225L56.0537 22.0264H54.7754C54.7074 22.764 54.5641 23.4909 54.3457 24.207C54.1309 24.9232 53.8677 25.5283 53.5562 26.0225H56.0537Z" fill="white"/>
</svg>
